<?xml version="1.0" standalone="no"?>
<!DOCTYPE svg PUBLIC "-//W3C//DTD SVG 20010904//EN"
 "http://www.w3.org/TR/2001/REC-SVG-20010904/DTD/svg10.dtd">
<svg version="1.0" xmlns="http://www.w3.org/2000/svg"
 width="512.000000pt" height="512.000000pt" viewBox="0 0 512.000000 512.000000"
 preserveAspectRatio="xMidYMid meet">

<g transform="translate(0.000000,512.000000) scale(0.100000,-0.100000)"
fill="#000000" stroke="none">
<path d="M2430 4790 c-162 -23 -331 -97 -468 -205 -251 -199 -391 -533 -353
-847 34 -277 165 -506 383 -670 72 -54 94 -90 84 -141 -11 -56 -40 -74 -187
-111 -229 -58 -461 -161 -638 -283 -109 -75 -126 -98 -126 -173 0 -97 58 -155
153 -155 52 0 64 5 143 57 182 121 354 196 569 249 150 38 223 74 290 145 122
129 153 322 76 477 -36 73 -76 119 -167 188 -232 176 -320 446 -234 717 142
451 720 590 1055 253 199 -200 245 -485 121 -736 -48 -97 -108 -167 -210 -244
-107 -81 -157 -153 -187 -266 -50 -185 45 -393 218 -481 26 -13 87 -33 135
-44 48 -12 130 -34 181 -51 102 -32 136 -32 191 2 88 54 95 199 12 258 -30 21
-183 73 -284 96 -92 21 -112 32 -133 71 -14 26 -16 40 -8 70 7 31 27 52 108
119 121 98 201 198 266 330 67 135 91 230 97 386 12 289 -90 538 -303 738
-123 115 -266 192 -429 232 -94 23 -263 32 -355 19z"/>
<path d="M3775 2707 c-37 -18 -70 -53 -84 -90 -8 -19 -11 -277 -11 -795 0
-835 -1 -852 -57 -953 -74 -137 -295 -249 -492 -249 -187 0 -351 90 -414 228
-17 37 -22 66 -22 137 0 78 4 98 27 145 55 112 181 223 306 270 31 12 97 28
147 36 93 14 123 29 159 78 16 20 21 42 21 85 0 48 -5 64 -29 95 -41 55 -84
70 -173 62 -303 -28 -582 -211 -712 -468 -55 -108 -75 -206 -68 -332 9 -176
68 -307 193 -431 88 -89 211 -155 351 -191 176 -44 413 -26 599 45 189 73 352
236 431 431 51 128 53 159 53 891 l0 679 64 -24 c225 -85 377 -279 407 -520 6
-45 13 -97 16 -116 6 -46 67 -106 116 -115 54 -10 103 2 142 36 47 42 59 85
52 188 -34 476 -425 862 -897 887 -69 3 -103 1 -125 -9z"/>
<path d="M723 2000 c-48 -29 -95 -98 -178 -263 -119 -236 -187 -472 -216 -744
-21 -207 -8 -273 65 -327 39 -29 133 -29 172 0 60 44 67 64 76 206 20 317 90
558 241 818 64 111 72 131 72 177 0 58 -20 93 -75 131 -42 28 -112 30 -157 2z"/>
</g>
</svg>
