<?xml version="1.0" encoding="UTF-8"?>
<svg width="700pt" height="700pt" version="1.1" viewBox="0 0 700 700" xmlns="http://www.w3.org/2000/svg" xmlns:xlink="http://www.w3.org/1999/xlink">
 <defs>
  <symbol id="t" overflow="visible">
   <path d="m16.625-1c-0.85547 0.44922-1.75 0.78125-2.6875 1-0.92969 0.22656-1.8984 0.34375-2.9062 0.34375-3.0117 0-5.3984-0.83594-7.1562-2.5156-1.7617-1.6875-2.6406-3.9727-2.6406-6.8594 0-2.8828 0.87891-5.1719 2.6406-6.8594 1.7578-1.6875 4.1445-2.5312 7.1562-2.5312 1.0078 0 1.9766 0.11719 2.9062 0.34375 0.9375 0.23047 1.832 0.5625 2.6875 1v3.75c-0.86719-0.59375-1.7188-1.0234-2.5625-1.2969-0.83594-0.26953-1.7188-0.40625-2.6562-0.40625-1.6562 0-2.9648 0.53125-3.9219 1.5938-0.94922 1.0625-1.4219 2.5312-1.4219 4.4062 0 1.8672 0.47266 3.3359 1.4219 4.4062 0.95703 1.0625 2.2656 1.5938 3.9219 1.5938 0.9375 0 1.8203-0.13281 2.6562-0.40625 0.84375-0.28125 1.6953-0.71094 2.5625-1.2969z"/>
  </symbol>
  <symbol id="d" overflow="visible">
   <path d="m12.156-9.875c-0.375-0.17578-0.75-0.30469-1.125-0.39062-0.375-0.082031-0.75781-0.125-1.1406-0.125-1.1172 0-1.9766 0.35938-2.5781 1.0781-0.59375 0.71094-0.89062 1.7305-0.89062 3.0625v6.25h-4.3438v-13.562h4.3438v2.2188c0.55078-0.88281 1.1875-1.5312 1.9062-1.9375 0.72656-0.40625 1.5977-0.60938 2.6094-0.60938 0.14453 0 0.30078 0.007813 0.46875 0.015625 0.17578 0.011719 0.42578 0.039062 0.75 0.078125z"/>
  </symbol>
  <symbol id="a" overflow="visible">
   <path d="m15.625-6.8281v1.25h-10.141c0.10156 1.0117 0.46875 1.7734 1.0938 2.2812 0.63281 0.51172 1.5195 0.76562 2.6562 0.76562 0.90625 0 1.8359-0.13281 2.7969-0.40625 0.95703-0.26953 1.9414-0.67969 2.9531-1.2344v3.3438c-1.0234 0.38672-2.0469 0.67969-3.0781 0.875-1.0234 0.19531-2.0469 0.29688-3.0781 0.29688-2.4492 0-4.3555-0.61719-5.7188-1.8594-1.3672-1.25-2.0469-3-2.0469-5.25 0-2.2188 0.66406-3.957 2-5.2188 1.3438-1.2695 3.1875-1.9062 5.5312-1.9062 2.125 0 3.8281 0.64062 5.1094 1.9219s1.9219 2.9961 1.9219 5.1406zm-4.4531-1.4375c0-0.82031-0.24219-1.4844-0.71875-1.9844-0.48047-0.50781-1.1094-0.76562-1.8906-0.76562-0.83594 0-1.5156 0.24219-2.0469 0.71875-0.52344 0.46875-0.85156 1.1484-0.98438 2.0312z"/>
  </symbol>
  <symbol id="j" overflow="visible">
   <path d="m8.1719-6.1094c-0.90625 0-1.5898 0.15625-2.0469 0.46875-0.46094 0.30469-0.6875 0.75781-0.6875 1.3594 0 0.54297 0.17969 0.96875 0.54688 1.2812 0.375 0.3125 0.89062 0.46875 1.5469 0.46875 0.8125 0 1.4922-0.28906 2.0469-0.875 0.5625-0.58203 0.84375-1.3164 0.84375-2.2031v-0.5zm6.625-1.625v7.7344h-4.375v-2.0156c-0.58594 0.82422-1.2422 1.4219-1.9688 1.7969-0.73047 0.375-1.6172 0.5625-2.6562 0.5625-1.4062 0-2.5469-0.40625-3.4219-1.2188-0.875-0.82031-1.3125-1.8906-1.3125-3.2031 0-1.582 0.54688-2.7422 1.6406-3.4844 1.0938-0.75 2.8125-1.125 5.1562-1.125h2.5625v-0.34375c0-0.6875-0.27344-1.1875-0.8125-1.5-0.54297-0.32031-1.3867-0.48438-2.5312-0.48438-0.92969 0-1.793 0.09375-2.5938 0.28125-0.80469 0.1875-1.5469 0.46875-2.2344 0.84375v-3.3125c0.92578-0.22656 1.8594-0.39844 2.7969-0.51562 0.9375-0.11328 1.875-0.17188 2.8125-0.17188 2.4453 0 4.2109 0.48438 5.2969 1.4531 1.0938 0.96094 1.6406 2.5273 1.6406 4.7031z"/>
  </symbol>
  <symbol id="c" overflow="visible">
   <path d="m6.8281-17.422v3.8594h4.4688v3.0938h-4.4688v5.75c0 0.63672 0.125 1.0625 0.375 1.2812s0.74219 0.32812 1.4844 0.32812h2.2344v3.1094h-3.7188c-1.7188 0-2.9375-0.35156-3.6562-1.0625-0.71094-0.71875-1.0625-1.9375-1.0625-3.6562v-5.75h-2.1562v-3.0938h2.1562v-3.8594z"/>
  </symbol>
  <symbol id="i" overflow="visible">
   <path d="m11.312-11.578v-7.2812h4.3594v18.859h-4.3594v-1.9688c-0.59375 0.80469-1.25 1.3906-1.9688 1.7656-0.71875 0.36328-1.5547 0.54688-2.5 0.54688-1.668 0-3.043-0.66016-4.125-1.9844-1.0742-1.332-1.6094-3.0391-1.6094-5.125 0-2.0938 0.53516-3.8008 1.6094-5.125 1.082-1.332 2.457-2 4.125-2 0.9375 0 1.7656 0.1875 2.4844 0.5625 0.72656 0.375 1.3906 0.96094 1.9844 1.75zm-2.8594 8.7812c0.92578 0 1.6328-0.33594 2.125-1.0156 0.48828-0.67578 0.73438-1.6602 0.73438-2.9531 0-1.3008-0.24609-2.2891-0.73438-2.9688-0.49219-0.67578-1.1992-1.0156-2.125-1.0156-0.91797 0-1.6211 0.33984-2.1094 1.0156-0.49219 0.67969-0.73438 1.668-0.73438 2.9688 0 1.293 0.24219 2.2773 0.73438 2.9531 0.48828 0.67969 1.1914 1.0156 2.1094 1.0156z"/>
  </symbol>
  <symbol id="h" overflow="visible">
   <path d="m9.3125-2.7969c0.92578 0 1.6289-0.33594 2.1094-1.0156 0.48828-0.67578 0.73438-1.6602 0.73438-2.9531 0-1.3008-0.24609-2.2891-0.73438-2.9688-0.48047-0.67578-1.1836-1.0156-2.1094-1.0156-0.9375 0-1.6562 0.34375-2.1562 1.0312-0.49219 0.67969-0.73438 1.6641-0.73438 2.9531 0 1.2812 0.24219 2.2656 0.73438 2.9531 0.5 0.67969 1.2188 1.0156 2.1562 1.0156zm-2.8906-8.7812c0.59375-0.78906 1.2539-1.375 1.9844-1.75 0.72656-0.375 1.5664-0.5625 2.5156-0.5625 1.6641 0 3.0352 0.66797 4.1094 2 1.0703 1.3242 1.6094 3.0312 1.6094 5.125 0 2.0859-0.53906 3.793-1.6094 5.125-1.0742 1.3242-2.4453 1.9844-4.1094 1.9844-0.94922 0-1.7891-0.1875-2.5156-0.5625-0.73047-0.375-1.3906-0.95703-1.9844-1.75v1.9688h-4.3438v-18.859h4.3438z"/>
  </symbol>
  <symbol id="g" overflow="visible">
   <path d="m0.29688-13.562h4.3438l3.6406 9.2031 3.1094-9.2031h4.3281l-5.7031 14.844c-0.57422 1.5078-1.2422 2.5664-2 3.1719-0.76172 0.60156-1.7734 0.90625-3.0312 0.90625h-2.5v-2.8438h1.3594c0.72656 0 1.2578-0.12109 1.5938-0.35938 0.34375-0.23047 0.60938-0.65234 0.79688-1.2656l0.10938-0.375z"/>
  </symbol>
  <symbol id="e" overflow="visible">
   <path d="m2.2812-18.094h7.7344c2.3008 0 4.0664 0.51562 5.2969 1.5469 1.2383 1.0234 1.8594 2.4766 1.8594 4.3594 0 1.8984-0.62109 3.3555-1.8594 4.375-1.2305 1.0234-2.9961 1.5312-5.2969 1.5312h-3.0781v6.2812h-4.6562zm4.6562 3.3906v5.0469h2.5781c0.90625 0 1.6016-0.21875 2.0938-0.65625 0.5-0.44531 0.75-1.0703 0.75-1.875 0-0.8125-0.25-1.4297-0.75-1.8594-0.49219-0.4375-1.1875-0.65625-2.0938-0.65625z"/>
  </symbol>
  <symbol id="b" overflow="visible">
   <path d="m8.5469-10.797c-0.96875 0-1.7109 0.35156-2.2188 1.0469-0.5 0.6875-0.75 1.6836-0.75 2.9844 0 1.293 0.25 2.2891 0.75 2.9844 0.50781 0.6875 1.25 1.0312 2.2188 1.0312 0.9375 0 1.6562-0.34375 2.1562-1.0312 0.50781-0.69531 0.76562-1.6914 0.76562-2.9844 0-1.3008-0.25781-2.2969-0.76562-2.9844-0.5-0.69531-1.2188-1.0469-2.1562-1.0469zm0-3.0938c2.332 0 4.1562 0.63281 5.4688 1.8906 1.3125 1.2617 1.9688 3.0078 1.9688 5.2344 0 2.2305-0.65625 3.9766-1.9688 5.2344-1.3125 1.25-3.1367 1.875-5.4688 1.875-2.3438 0-4.1797-0.625-5.5-1.875-1.3242-1.2578-1.9844-3.0039-1.9844-5.2344 0-2.2266 0.66016-3.9727 1.9844-5.2344 1.3203-1.2578 3.1562-1.8906 5.5-1.8906z"/>
  </symbol>
  <symbol id="f" overflow="visible">
   <path d="m1.9375-5.2812v-8.2812h4.3594v1.3438c0 0.74219-0.007813 1.668-0.015625 2.7812v2.2188c0 1.0938 0.023438 1.8828 0.078125 2.3594 0.0625 0.48047 0.16016 0.82812 0.29688 1.0469 0.17578 0.28125 0.40625 0.5 0.6875 0.65625 0.28906 0.14844 0.61719 0.21875 0.98438 0.21875 0.90625 0 1.6172-0.34375 2.1406-1.0312 0.51953-0.69531 0.78125-1.6641 0.78125-2.9062v-6.6875h4.3281v13.562h-4.3281v-1.9688c-0.65625 0.79297-1.3555 1.375-2.0938 1.75-0.73047 0.375-1.5312 0.5625-2.4062 0.5625-1.5742 0-2.7734-0.47656-3.5938-1.4375-0.8125-0.95703-1.2188-2.3516-1.2188-4.1875z"/>
  </symbol>
  <symbol id="s" overflow="visible">
   <path d="m6.4219-1.9688v7.125h-4.3438v-18.719h4.3438v1.9844c0.59375-0.78906 1.2539-1.375 1.9844-1.75 0.72656-0.375 1.5664-0.5625 2.5156-0.5625 1.6641 0 3.0352 0.66797 4.1094 2 1.0703 1.3242 1.6094 3.0312 1.6094 5.125 0 2.0859-0.53906 3.793-1.6094 5.125-1.0742 1.3242-2.4453 1.9844-4.1094 1.9844-0.94922 0-1.7891-0.1875-2.5156-0.5625-0.73047-0.375-1.3906-0.95703-1.9844-1.75zm2.8906-8.7812c-0.9375 0-1.6562 0.34375-2.1562 1.0312-0.49219 0.67969-0.73438 1.6641-0.73438 2.9531 0 1.2812 0.24219 2.2656 0.73438 2.9531 0.5 0.67969 1.2188 1.0156 2.1562 1.0156 0.92578 0 1.6289-0.33594 2.1094-1.0156 0.48828-0.67578 0.73438-1.6602 0.73438-2.9531 0-1.3008-0.24609-2.2891-0.73438-2.9688-0.48047-0.67578-1.1836-1.0156-2.1094-1.0156z"/>
  </symbol>
  <symbol id="r" overflow="visible">
   <path d="m12.688-13.141v3.2969c-0.92969-0.39453-1.8242-0.6875-2.6875-0.875-0.86719-0.19531-1.6836-0.29688-2.4531-0.29688-0.82422 0-1.4375 0.10547-1.8438 0.3125-0.39844 0.21094-0.59375 0.52734-0.59375 0.95312 0 0.34375 0.14844 0.60938 0.45312 0.79688 0.30078 0.1875 0.84766 0.32422 1.6406 0.40625l0.75 0.10938c2.2266 0.28125 3.7227 0.75 4.4844 1.4062 0.76953 0.64844 1.1562 1.6562 1.1562 3.0312 0 1.4492-0.53906 2.5391-1.6094 3.2656-1.0625 0.71875-2.6523 1.0781-4.7656 1.0781-0.89844 0-1.8242-0.074219-2.7812-0.21875-0.96094-0.13281-1.9453-0.34375-2.9531-0.625v-3.2969c0.86328 0.42969 1.75 0.74609 2.6562 0.95312 0.91406 0.21094 1.8438 0.3125 2.7812 0.3125 0.84375 0 1.4766-0.11328 1.9062-0.34375 0.42578-0.23828 0.64062-0.58594 0.64062-1.0469 0-0.38281-0.14844-0.67188-0.4375-0.85938-0.29297-0.19531-0.88281-0.34766-1.7656-0.45312l-0.76562-0.09375c-1.9297-0.23828-3.2812-0.6875-4.0625-1.3438-0.77344-0.65625-1.1562-1.6484-1.1562-2.9844 0-1.4375 0.48828-2.5 1.4688-3.1875 0.98828-0.69531 2.5039-1.0469 4.5469-1.0469 0.80078 0 1.6406 0.0625 2.5156 0.1875 0.88281 0.11719 1.8438 0.30469 2.875 0.5625z"/>
  </symbol>
  <symbol id="q" overflow="visible">
   <path d="m11.016-18.859v2.8594h-2.4062c-0.61719 0-1.043 0.10938-1.2812 0.32812-0.24219 0.21875-0.35938 0.60547-0.35938 1.1562v0.95312h3.7031v3.0938h-3.7031v10.469h-4.3438v-10.469h-2.1562v-3.0938h2.1562v-0.95312c0-1.4766 0.41016-2.5703 1.2344-3.2812 0.82031-0.70703 2.0977-1.0625 3.8281-1.0625z"/>
  </symbol>
  <symbol id="p" overflow="visible">
   <path d="m14.656-11.312c0.55078-0.84375 1.2031-1.4844 1.9531-1.9219 0.75781-0.4375 1.5938-0.65625 2.5-0.65625 1.5508 0 2.7344 0.48047 3.5469 1.4375 0.82031 0.96094 1.2344 2.3555 1.2344 4.1875v8.2656h-4.3594v-7.0781c0.007812-0.10156 0.015625-0.21094 0.015625-0.32812v-0.48438c0-0.95703-0.14062-1.6484-0.42188-2.0781-0.28125-0.4375-0.73438-0.65625-1.3594-0.65625-0.82422 0-1.4609 0.33984-1.9062 1.0156-0.44922 0.67969-0.68359 1.6641-0.70312 2.9531v6.6562h-4.3594v-7.0781c0-1.5-0.13281-2.4609-0.39062-2.8906-0.26172-0.4375-0.71875-0.65625-1.375-0.65625-0.83594 0-1.4805 0.34375-1.9375 1.0312-0.44922 0.67969-0.67188 1.6523-0.67188 2.9219v6.6719h-4.3594v-13.562h4.3594v1.9844c0.53125-0.76953 1.1406-1.3477 1.8281-1.7344 0.69531-0.38281 1.4609-0.57812 2.2969-0.57812 0.9375 0 1.7656 0.22656 2.4844 0.67188 0.71875 0.44922 1.2578 1.0859 1.625 1.9062z"/>
  </symbol>
  <symbol id="o" overflow="visible">
   <path d="m15.719-8.2656v8.2656h-4.3594v-6.2969c0-1.1875-0.027344-2-0.078125-2.4375-0.054688-0.44531-0.14062-0.78125-0.26562-1-0.16797-0.28125-0.39844-0.5-0.6875-0.65625-0.29297-0.15625-0.625-0.23438-1-0.23438-0.90625 0-1.6211 0.35156-2.1406 1.0469-0.51172 0.69922-0.76562 1.668-0.76562 2.9062v6.6719h-4.3438v-18.859h4.3438v7.2812c0.65625-0.78906 1.3477-1.375 2.0781-1.75 0.73828-0.375 1.5508-0.5625 2.4375-0.5625 1.5703 0 2.7578 0.48047 3.5625 1.4375 0.8125 0.96094 1.2188 2.3555 1.2188 4.1875z"/>
  </symbol>
  <symbol id="n" overflow="visible">
   <path d="m2.2812-18.094h5.2031l6.5781 12.406v-12.406h4.4219v18.094h-5.2031l-6.5781-12.406v12.406h-4.4219z"/>
  </symbol>
  <symbol id="m" overflow="visible">
   <path d="m15.719-8.2656v8.2656h-4.3594v-6.3281c0-1.1641-0.027344-1.9688-0.078125-2.4062-0.054688-0.44531-0.14062-0.78125-0.26562-1-0.16797-0.28125-0.39844-0.5-0.6875-0.65625-0.29297-0.15625-0.625-0.23438-1-0.23438-0.90625 0-1.6211 0.35156-2.1406 1.0469-0.51172 0.69922-0.76562 1.668-0.76562 2.9062v6.6719h-4.3438v-13.562h4.3438v1.9844c0.65625-0.78906 1.3477-1.375 2.0781-1.75 0.73828-0.375 1.5508-0.5625 2.4375-0.5625 1.5703 0 2.7578 0.48047 3.5625 1.4375 0.8125 0.96094 1.2188 2.3555 1.2188 4.1875z"/>
  </symbol>
  <symbol id="l" overflow="visible">
   <path d="m2.0781-13.562h4.3438v13.312c0 1.8203-0.4375 3.2109-1.3125 4.1719-0.875 0.95703-2.1367 1.4375-3.7812 1.4375h-2.1562v-2.8438h0.75c0.82031 0 1.3828-0.1875 1.6875-0.5625 0.3125-0.375 0.46875-1.1094 0.46875-2.2031zm0-5.2969h4.3438v3.5469h-4.3438z"/>
  </symbol>
  <symbol id="k" overflow="visible">
   <path d="m13.047-13.141v3.5312c-0.59375-0.40625-1.1875-0.70312-1.7812-0.89062-0.58594-0.19531-1.1992-0.29688-1.8438-0.29688-1.2109 0-2.1523 0.35547-2.8281 1.0625-0.67969 0.71094-1.0156 1.6992-1.0156 2.9688 0 1.2617 0.33594 2.2461 1.0156 2.9531 0.67578 0.71094 1.6172 1.0625 2.8281 1.0625 0.67578 0 1.3164-0.097656 1.9219-0.29688 0.61328-0.20703 1.1797-0.50781 1.7031-0.90625v3.5469c-0.67969 0.25-1.3672 0.4375-2.0625 0.5625-0.69922 0.125-1.4023 0.1875-2.1094 0.1875-2.4492 0-4.3672-0.625-5.75-1.875-1.375-1.2578-2.0625-3.0039-2.0625-5.2344 0-2.2383 0.6875-3.9844 2.0625-5.2344 1.3828-1.2578 3.3008-1.8906 5.75-1.8906 0.71875 0 1.4219 0.0625 2.1094 0.1875s1.375 0.3125 2.0625 0.5625z"/>
  </symbol>
 </defs>
 <g>
  <path d="m550.39 1.8359h-2.5312c-9.9727-0.054688-19.562 3.8594-26.652 10.875-7.0898 7.0156-11.102 16.559-11.152 26.535v159.21l-332.07-192.75c-9.8945-5.7734-21.703-7.3086-32.75-4.2656-11.047 3.043-20.398 10.41-25.941 20.438-3.5156 6.4766-5.2305 13.773-4.9609 21.137v471.34c-0.21875 7.3242 1.4922 14.578 4.9609 21.035 3.7109 6.6602 9.125 12.215 15.691 16.098 6.5625 3.8789 14.043 5.9414 21.668 5.9805 7.4648 0.015625 14.797-1.9727 21.234-5.7539l332.17-192.75v163.73c0.050781 9.9688 4.0664 19.508 11.156 26.516 7.0898 7.0078 16.68 10.91 26.648 10.844h2.5312c9.2812 0.066407 18.207-3.5547 24.824-10.066 6.6133-6.5117 10.371-15.383 10.449-24.664v-488.61c-0.050781-9.3047-3.7969-18.203-10.414-24.746-6.6133-6.5391-15.559-10.188-24.859-10.133z"/>
  <path d="m585.67 36.715v488.41c-0.078125 9.2812-3.8359 18.152-10.449 24.664-6.6172 6.5117-15.543 10.133-24.824 10.066h-2.5312c-9.9688 0.066407-19.559-3.8359-26.648-10.844-7.0898-7.0078-11.105-16.547-11.156-26.516v-163.73l-332.07 193c-6.4336 3.7812-13.77 5.7656-21.234 5.7539-7.6406-0.019531-15.141-2.0781-21.723-5.957-6.5859-3.8828-12.016-9.4453-15.734-16.121-3.4688-6.457-5.1797-13.711-4.9609-21.039v-471.34 0.003906c-0.27734-7.3789 1.4375-14.695 4.9609-21.188 5.543-10.027 14.895-17.395 25.941-20.438 11.047-3.043 22.855-1.5078 32.75 4.2656l332.07 192.75v-159.21c0.050781-9.9766 4.0625-19.52 11.152-26.535 7.0898-7.0156 16.68-10.93 26.652-10.875h2.5312c9.3008-0.054688 18.246 3.5938 24.859 10.133 6.6172 6.543 10.363 15.441 10.414 24.746z"/>
  <use x="114.332031" y="634.421875" xlink:href="#t"/>
  <use x="132.535156" y="634.421875" xlink:href="#d"/>
  <use x="144.769531" y="634.421875" xlink:href="#a"/>
  <use x="161.59375" y="634.421875" xlink:href="#j"/>
  <use x="178.335937" y="634.421875" xlink:href="#c"/>
  <use x="190.195312" y="634.421875" xlink:href="#a"/>
  <use x="207.019531" y="634.421875" xlink:href="#i"/>
  <use x="233.414062" y="634.421875" xlink:href="#h"/>
  <use x="251.171875" y="634.421875" xlink:href="#g"/>
  <use x="275.976562" y="634.421875" xlink:href="#e"/>
  <use x="294.160156" y="634.421875" xlink:href="#b"/>
  <use x="311.203125" y="634.421875" xlink:href="#f"/>
  <use x="328.863281" y="634.421875" xlink:href="#s"/>
  <use x="346.621094" y="634.421875" xlink:href="#r"/>
  <use x="114.332031" y="659.230469" xlink:href="#q"/>
  <use x="125.125" y="659.230469" xlink:href="#d"/>
  <use x="137.355469" y="659.230469" xlink:href="#b"/>
  <use x="154.398438" y="659.230469" xlink:href="#p"/>
  <use x="188.886719" y="659.230469" xlink:href="#c"/>
  <use x="200.746094" y="659.230469" xlink:href="#o"/>
  <use x="218.40625" y="659.230469" xlink:href="#a"/>
  <use x="243.867187" y="659.230469" xlink:href="#n"/>
  <use x="264.628906" y="659.230469" xlink:href="#b"/>
  <use x="281.671875" y="659.230469" xlink:href="#f"/>
  <use x="299.332031" y="659.230469" xlink:href="#m"/>
  <use x="325.628906" y="659.230469" xlink:href="#e"/>
  <use x="343.808594" y="659.230469" xlink:href="#d"/>
  <use x="356.042969" y="659.230469" xlink:href="#b"/>
  <use x="373.085938" y="659.230469" xlink:href="#l"/>
  <use x="381.589844" y="659.230469" xlink:href="#a"/>
  <use x="398.414062" y="659.230469" xlink:href="#k"/>
  <use x="413.121094" y="659.230469" xlink:href="#c"/>
 </g>
</svg>
