<?xml version="1.0" encoding="UTF-8"?>
<svg width="700pt" height="700pt" version="1.1" viewBox="0 0 700 700" xmlns="http://www.w3.org/2000/svg" xmlns:xlink="http://www.w3.org/1999/xlink">
 <defs>
  <symbol id="w" overflow="visible">
   <path d="m7.3906-0.4375c-0.38672 0.19922-0.78906 0.34375-1.2031 0.4375-0.40625 0.10156-0.83594 0.15625-1.2812 0.15625-1.3438 0-2.4062-0.375-3.1875-1.125s-1.1719-1.7656-1.1719-3.0469 0.39062-2.2969 1.1719-3.0469 1.8438-1.125 3.1875-1.125c0.44531 0 0.875 0.054688 1.2812 0.15625 0.41406 0.09375 0.81641 0.24219 1.2031 0.4375v1.6719c-0.38672-0.25781-0.76562-0.45312-1.1406-0.57812s-0.76562-0.1875-1.1719-0.1875c-0.74219 0-1.3242 0.24219-1.75 0.71875-0.42969 0.46875-0.64062 1.1211-0.64062 1.9531 0 0.83594 0.21094 1.4922 0.64062 1.9688 0.42578 0.46875 1.0078 0.70312 1.75 0.70312 0.40625 0 0.79688-0.0625 1.1719-0.1875s0.75391-0.31641 1.1406-0.57812z"/>
  </symbol>
  <symbol id="d" overflow="visible">
   <path d="m5.4062-4.3906c-0.16797-0.082031-0.33594-0.14062-0.5-0.17188-0.16797-0.039062-0.33594-0.0625-0.5-0.0625-0.5 0-0.88672 0.16406-1.1562 0.48438-0.26172 0.3125-0.39062 0.76562-0.39062 1.3594v2.7812h-1.9375v-6.0312h1.9375v0.98438c0.23828-0.39453 0.51953-0.67969 0.84375-0.85938 0.32031-0.17578 0.70703-0.26562 1.1562-0.26562 0.0625 0 0.12891 0.007813 0.20312 0.015625 0.082031 0 0.19531 0.007812 0.34375 0.015625z"/>
  </symbol>
  <symbol id="a" overflow="visible">
   <path d="m6.9531-3.0312v0.54688h-4.5156c0.050781 0.46094 0.21094 0.80469 0.48438 1.0312 0.28125 0.21875 0.67578 0.32812 1.1875 0.32812 0.40625 0 0.81641-0.054688 1.2344-0.17188 0.42578-0.125 0.86328-0.3125 1.3125-0.5625v1.5c-0.44922 0.16797-0.90234 0.29297-1.3594 0.375-0.46094 0.09375-0.91797 0.14062-1.375 0.14062-1.0859 0-1.9336-0.27344-2.5469-0.82812-0.60547-0.5625-0.90625-1.3438-0.90625-2.3438 0-0.97656 0.29688-1.75 0.89062-2.3125s1.4102-0.84375 2.4531-0.84375c0.94531 0 1.707 0.28906 2.2812 0.85938 0.57031 0.5625 0.85938 1.3242 0.85938 2.2812zm-1.9844-0.64062c0-0.36328-0.10938-0.65625-0.32812-0.875-0.21094-0.22656-0.48438-0.34375-0.82812-0.34375-0.375 0-0.68359 0.10547-0.92188 0.3125-0.23047 0.21094-0.37109 0.51172-0.42188 0.90625z"/>
  </symbol>
  <symbol id="c" overflow="visible">
   <path d="m3.625-2.7188c-0.39844 0-0.69922 0.070312-0.90625 0.20312-0.19922 0.13672-0.29688 0.33984-0.29688 0.60938 0 0.24219 0.078125 0.43359 0.23438 0.57812 0.16406 0.13672 0.39453 0.20312 0.6875 0.20312 0.36328 0 0.66406-0.12891 0.90625-0.39062 0.25-0.25781 0.375-0.58594 0.375-0.98438v-0.21875zm2.9531-0.71875v3.4375h-1.9531v-0.89062c-0.25 0.36719-0.53906 0.63281-0.85938 0.79688-0.32422 0.16406-0.71875 0.25-1.1875 0.25-0.625 0-1.1367-0.17969-1.5312-0.54688-0.38672-0.36328-0.57812-0.83594-0.57812-1.4219 0-0.70703 0.24219-1.2227 0.73438-1.5469 0.48828-0.33203 1.2539-0.5 2.2969-0.5h1.125v-0.15625c0-0.30078-0.12109-0.51953-0.35938-0.65625-0.24219-0.14453-0.61719-0.21875-1.125-0.21875-0.40625 0-0.79297 0.042969-1.1562 0.125-0.35547 0.085937-0.68359 0.20312-0.98438 0.35938v-1.4688c0.41406-0.09375 0.83203-0.16406 1.25-0.21875 0.41406-0.050781 0.83203-0.078125 1.25-0.078125 1.082 0 1.8633 0.21484 2.3438 0.64062 0.48828 0.42969 0.73438 1.125 0.73438 2.0938z"/>
  </symbol>
  <symbol id="b" overflow="visible">
   <path d="m3.0312-7.75v1.7188h1.9844v1.375h-1.9844v2.5625c0 0.28125 0.050781 0.47656 0.15625 0.57812 0.11328 0.09375 0.33594 0.14062 0.67188 0.14062h1v1.375h-1.6562c-0.76172 0-1.3047-0.15625-1.625-0.46875-0.3125-0.32031-0.46875-0.86328-0.46875-1.625v-2.5625h-0.96875v-1.375h0.96875v-1.7188z"/>
  </symbol>
  <symbol id="k" overflow="visible">
   <path d="m5.0312-5.1562v-3.2188h1.9375v8.375h-1.9375v-0.875c-0.27344 0.35547-0.57031 0.61719-0.89062 0.78125-0.3125 0.16406-0.67969 0.25-1.0938 0.25-0.75 0-1.3672-0.28906-1.8438-0.875-0.46875-0.59375-0.70312-1.3594-0.70312-2.2969 0-0.92578 0.23438-1.6797 0.70312-2.2656 0.47656-0.59375 1.0938-0.89062 1.8438-0.89062 0.41406 0 0.78125 0.085937 1.0938 0.25 0.32031 0.16797 0.61719 0.42188 0.89062 0.76562zm-1.2656 3.9062c0.40625 0 0.71875-0.14844 0.9375-0.45312 0.21875-0.30078 0.32812-0.73828 0.32812-1.3125 0-0.57031-0.10938-1.0078-0.32812-1.3125-0.21875-0.30078-0.53125-0.45312-0.9375-0.45312-0.41797 0-0.73438 0.15234-0.95312 0.45312-0.21094 0.30469-0.3125 0.74219-0.3125 1.3125 0 0.57422 0.10156 1.0117 0.3125 1.3125 0.21875 0.30469 0.53516 0.45312 0.95312 0.45312z"/>
  </symbol>
  <symbol id="j" overflow="visible">
   <path d="m4.1406-1.25c0.40625 0 0.71875-0.14844 0.9375-0.45312 0.21875-0.30078 0.32812-0.73828 0.32812-1.3125 0-0.57031-0.10938-1.0078-0.32812-1.3125-0.21875-0.30078-0.53125-0.45312-0.9375-0.45312-0.41797 0-0.73438 0.15234-0.95312 0.45312-0.21875 0.30469-0.32812 0.74219-0.32812 1.3125 0 0.57422 0.10938 1.0117 0.32812 1.3125 0.21875 0.30469 0.53516 0.45312 0.95312 0.45312zm-1.2812-3.9062c0.25781-0.34375 0.55078-0.59766 0.875-0.76562 0.32031-0.16406 0.69531-0.25 1.125-0.25 0.73828 0 1.3477 0.29688 1.8281 0.89062 0.47656 0.58594 0.71875 1.3398 0.71875 2.2656 0 0.9375-0.24219 1.7031-0.71875 2.2969-0.48047 0.58594-1.0898 0.875-1.8281 0.875-0.42969 0-0.80469-0.085938-1.125-0.25-0.32422-0.16406-0.61719-0.42578-0.875-0.78125v0.875h-1.9375v-8.375h1.9375z"/>
  </symbol>
  <symbol id="g" overflow="visible">
   <path d="m0.14062-6.0312h1.9219l1.625 4.0938 1.375-4.0938h1.9219l-2.5312 6.6094c-0.25 0.66406-0.54688 1.1289-0.89062 1.3906-0.34375 0.26953-0.79297 0.40625-1.3438 0.40625h-1.1094v-1.2656h0.59375c0.33203 0 0.57031-0.054687 0.71875-0.15625 0.14453-0.10547 0.25781-0.28906 0.34375-0.54688l0.0625-0.17188z"/>
  </symbol>
  <symbol id="f" overflow="visible">
   <path d="m5.8906-1.4688h-3.2344l-0.51562 1.4688h-2.0938l2.9844-8.0469h2.4688l2.9844 8.0469h-2.0781zm-2.7188-1.4844h2.2031l-1.1094-3.2031z"/>
  </symbol>
  <symbol id="v" overflow="visible">
   <path d="m0.92188-6.0312h1.9375v6.0312h-1.9375zm0-2.3438h1.9375v1.5625h-1.9375z"/>
  </symbol>
  <symbol id="i" overflow="visible">
   <path d="m6.9844-3.6719v3.6719h-1.9375v-2.8125c0-0.51953-0.011719-0.87891-0.03125-1.0781-0.023437-0.19531-0.0625-0.34375-0.125-0.4375-0.074219-0.125-0.17969-0.21875-0.3125-0.28125-0.125-0.070313-0.27344-0.10938-0.4375-0.10938-0.39844 0-0.71094 0.15625-0.9375 0.46875-0.23047 0.30469-0.34375 0.73047-0.34375 1.2812v2.9688h-1.9375v-6.0312h1.9375v0.875c0.28906-0.34375 0.59766-0.59766 0.92188-0.76562 0.32031-0.16406 0.67969-0.25 1.0781-0.25 0.69531 0 1.2227 0.21484 1.5781 0.64062 0.36328 0.42969 0.54688 1.0469 0.54688 1.8594z"/>
  </symbol>
  <symbol id="u" overflow="visible">
   <path d="m5.6406-5.8438v1.4688c-0.41797-0.17578-0.82031-0.30469-1.2031-0.39062-0.375-0.082031-0.73438-0.125-1.0781-0.125-0.36719 0-0.64062 0.046875-0.82812 0.14062-0.17969 0.085938-0.26562 0.21875-0.26562 0.40625 0 0.15625 0.066406 0.27734 0.20312 0.35938 0.13281 0.085937 0.37891 0.14844 0.73438 0.1875l0.32812 0.046875c0.98828 0.125 1.6562 0.33594 2 0.625 0.34375 0.28125 0.51562 0.73047 0.51562 1.3438 0 0.64844-0.24219 1.1328-0.71875 1.4531-0.46875 0.32422-1.1797 0.48438-2.125 0.48438-0.39844 0-0.80859-0.03125-1.2344-0.09375-0.42969-0.0625-0.86719-0.15625-1.3125-0.28125v-1.4688c0.38281 0.1875 0.78125 0.32812 1.1875 0.42188s0.81641 0.14062 1.2344 0.14062c0.375 0 0.65625-0.050781 0.84375-0.15625 0.19531-0.10156 0.29688-0.25781 0.29688-0.46875 0-0.16406-0.070312-0.28906-0.20312-0.375-0.13672-0.082031-0.39844-0.14844-0.78125-0.20312l-0.34375-0.046875c-0.85547-0.10156-1.4531-0.30078-1.7969-0.59375-0.34375-0.28906-0.51562-0.73438-0.51562-1.3281 0-0.63281 0.21875-1.1016 0.65625-1.4062 0.4375-0.3125 1.1094-0.46875 2.0156-0.46875 0.35156 0 0.72266 0.027344 1.1094 0.078125 0.39453 0.054688 0.82031 0.13672 1.2812 0.25z"/>
  </symbol>
  <symbol id="t" overflow="visible">
   <path d="m0.92188-8.375h1.9375v8.375h-1.9375z"/>
  </symbol>
  <symbol id="s" overflow="visible">
   <path d="m5.0312-1.0156c-0.27344 0.34375-0.57031 0.60156-0.89062 0.76562-0.3125 0.16797-0.67969 0.25-1.0938 0.25-0.74219 0-1.3516-0.28516-1.8281-0.85938-0.48047-0.58203-0.71875-1.3281-0.71875-2.2344 0-0.89453 0.23828-1.6289 0.71875-2.2031 0.47656-0.58203 1.0859-0.875 1.8281-0.875 0.41406 0 0.78125 0.085937 1.0938 0.25 0.32031 0.16797 0.61719 0.42969 0.89062 0.78125v-0.89062h1.9375v5.4219c0 0.96875-0.30859 1.707-0.92188 2.2188-0.60547 0.50781-1.4922 0.76562-2.6562 0.76562-0.375 0-0.74219-0.03125-1.0938-0.09375-0.35547-0.054688-0.71094-0.13672-1.0625-0.25v-1.5c0.33203 0.1875 0.66016 0.32812 0.98438 0.42188 0.32031 0.10156 0.64844 0.15625 0.98438 0.15625 0.625 0 1.082-0.14062 1.375-0.42188 0.30078-0.27344 0.45312-0.70312 0.45312-1.2969zm-1.2656-3.7656c-0.40625 0-0.71875 0.15234-0.9375 0.45312-0.21875 0.29297-0.32812 0.70312-0.32812 1.2344 0 0.5625 0.10156 0.98438 0.3125 1.2656 0.21875 0.28125 0.53516 0.42188 0.95312 0.42188 0.39453 0 0.70312-0.14453 0.92188-0.4375 0.22656-0.28906 0.34375-0.70703 0.34375-1.25 0-0.53125-0.11719-0.94141-0.34375-1.2344-0.21875-0.30078-0.52734-0.45312-0.92188-0.45312z"/>
  </symbol>
  <symbol id="h" overflow="visible">
   <path d="m6.9844-3.6719v3.6719h-1.9375v-2.7969c0-0.53125-0.011719-0.89453-0.03125-1.0938-0.023437-0.19531-0.0625-0.34375-0.125-0.4375-0.074219-0.125-0.17969-0.21875-0.3125-0.28125-0.125-0.070313-0.27344-0.10938-0.4375-0.10938-0.39844 0-0.71094 0.15625-0.9375 0.46875-0.23047 0.30469-0.34375 0.73047-0.34375 1.2812v2.9688h-1.9375v-8.375h1.9375v3.2188c0.28906-0.34375 0.59766-0.59766 0.92188-0.76562 0.32031-0.16406 0.67969-0.25 1.0781-0.25 0.69531 0 1.2227 0.21484 1.5781 0.64062 0.36328 0.42969 0.54688 1.0469 0.54688 1.8594z"/>
  </symbol>
  <symbol id="r" overflow="visible">
   <path d="m4.8906-8.375v1.2656h-1.0625c-0.27344 0-0.46484 0.054687-0.57812 0.15625-0.10547 0.09375-0.15625 0.26172-0.15625 0.5v0.42188h1.6562v1.375h-1.6562v4.6562h-1.9219v-4.6562h-0.96875v-1.375h0.96875v-0.42188c0-0.65625 0.17969-1.1406 0.54688-1.4531 0.36328-0.3125 0.92969-0.46875 1.7031-0.46875z"/>
  </symbol>
  <symbol id="e" overflow="visible">
   <path d="m3.7969-4.7969c-0.42969 0-0.75781 0.15625-0.98438 0.46875-0.21875 0.30469-0.32812 0.74219-0.32812 1.3125 0 0.58594 0.10938 1.0312 0.32812 1.3438 0.22656 0.30469 0.55469 0.45312 0.98438 0.45312 0.41406 0 0.73438-0.14844 0.95312-0.45312 0.22656-0.3125 0.34375-0.75781 0.34375-1.3438 0-0.57031-0.11719-1.0078-0.34375-1.3125-0.21875-0.3125-0.53906-0.46875-0.95312-0.46875zm0-1.375c1.0391 0 1.8516 0.28125 2.4375 0.84375 0.58203 0.55469 0.875 1.3242 0.875 2.3125 0 0.99219-0.29297 1.7656-0.875 2.3281-0.58594 0.5625-1.3984 0.84375-2.4375 0.84375-1.043 0-1.8594-0.28125-2.4531-0.84375-0.58594-0.5625-0.875-1.3359-0.875-2.3281 0-0.98828 0.28906-1.7578 0.875-2.3125 0.59375-0.5625 1.4102-0.84375 2.4531-0.84375z"/>
  </symbol>
  <symbol id="q" overflow="visible">
   <path d="m6.5156-5.0312c0.25-0.375 0.53906-0.65625 0.875-0.84375 0.33203-0.19531 0.70312-0.29688 1.1094-0.29688 0.6875 0 1.2109 0.21484 1.5781 0.64062 0.36328 0.42969 0.54688 1.0469 0.54688 1.8594v3.6719h-1.9375v-3.1406-0.14062-0.21875c0-0.42578-0.0625-0.73438-0.1875-0.92188-0.125-0.19531-0.32812-0.29688-0.60938-0.29688-0.36719 0-0.64844 0.15234-0.84375 0.45312-0.19922 0.30469-0.30469 0.73438-0.3125 1.2969v2.9688h-1.9375v-3.1406c0-0.66406-0.058594-1.0938-0.17188-1.2812-0.11719-0.19531-0.32031-0.29688-0.60938-0.29688-0.375 0-0.66406 0.15234-0.85938 0.45312-0.19922 0.30469-0.29688 0.73438-0.29688 1.2969v2.9688h-1.9375v-6.0312h1.9375v0.875c0.22656-0.33203 0.49219-0.58203 0.79688-0.75 0.3125-0.17578 0.65625-0.26562 1.0312-0.26562 0.41406 0 0.78125 0.10156 1.0938 0.29688 0.32031 0.19922 0.56641 0.48047 0.73438 0.84375z"/>
  </symbol>
  <symbol id="p" overflow="visible">
   <path d="m1.0156-8.0469h2.3125l2.9219 5.5156v-5.5156h1.9688v8.0469h-2.3125l-2.9219-5.5156v5.5156h-1.9688z"/>
  </symbol>
  <symbol id="o" overflow="visible">
   <path d="m0.85938-2.3438v-3.6875h1.9375v0.60938 1.2344 0.98438c0 0.48047 0.007813 0.82812 0.03125 1.0469 0.019531 0.21094 0.0625 0.35938 0.125 0.45312 0.082031 0.125 0.1875 0.22656 0.3125 0.29688 0.125 0.074219 0.26953 0.10938 0.4375 0.10938 0.40625 0 0.72266-0.15625 0.95312-0.46875 0.22656-0.3125 0.34375-0.73828 0.34375-1.2812v-2.9844h1.9219v6.0312h-1.9219v-0.875c-0.29297 0.35547-0.60156 0.61719-0.92188 0.78125-0.32422 0.16406-0.68359 0.25-1.0781 0.25-0.69922 0-1.2305-0.21094-1.5938-0.64062-0.36719-0.42578-0.54688-1.0469-0.54688-1.8594z"/>
  </symbol>
  <symbol id="n" overflow="visible">
   <path d="m1.0156-8.0469h3.4375c1.0195 0 1.8008 0.23047 2.3438 0.6875 0.55078 0.46094 0.82812 1.1055 0.82812 1.9375 0 0.84375-0.27734 1.4961-0.82812 1.9531-0.54297 0.44922-1.3242 0.67188-2.3438 0.67188h-1.3594v2.7969h-2.0781zm2.0781 1.5156v2.2344h1.1406c0.40625 0 0.71875-0.09375 0.9375-0.28125 0.21875-0.19531 0.32812-0.47656 0.32812-0.84375 0-0.35156-0.10938-0.625-0.32812-0.8125-0.21875-0.19531-0.53125-0.29688-0.9375-0.29688z"/>
  </symbol>
  <symbol id="m" overflow="visible">
   <path d="m0.92188-6.0312h1.9375v5.9219c0 0.8125-0.19922 1.4258-0.59375 1.8438-0.38672 0.42578-0.94531 0.64062-1.6719 0.64062h-0.95312v-1.2656h0.32812c0.36328 0 0.61328-0.085937 0.75-0.25 0.13281-0.15625 0.20312-0.48047 0.20312-0.96875zm0-2.3438h1.9375v1.5625h-1.9375z"/>
  </symbol>
  <symbol id="l" overflow="visible">
   <path d="m5.7969-5.8438v1.5781c-0.26172-0.1875-0.52734-0.32031-0.79688-0.40625-0.26172-0.082031-0.53125-0.125-0.8125-0.125-0.54297 0-0.96484 0.15625-1.2656 0.46875-0.29297 0.3125-0.4375 0.75-0.4375 1.3125s0.14453 1.0078 0.4375 1.3281c0.30078 0.3125 0.72266 0.46875 1.2656 0.46875 0.30078 0 0.58594-0.039062 0.85938-0.125 0.26953-0.09375 0.51953-0.22656 0.75-0.40625v1.5781c-0.30469 0.10547-0.60938 0.17969-0.92188 0.23438-0.30469 0.0625-0.60938 0.09375-0.92188 0.09375-1.0938 0-1.9492-0.27344-2.5625-0.82812-0.61719-0.5625-0.92188-1.3438-0.92188-2.3438 0-0.98828 0.30469-1.7578 0.92188-2.3125 0.61328-0.5625 1.4688-0.84375 2.5625-0.84375 0.3125 0 0.61719 0.027344 0.92188 0.078125 0.3125 0.054688 0.61719 0.13672 0.92188 0.25z"/>
  </symbol>
 </defs>
 <g>
  <path d="m568.93 305.88-405.96 249.61c-19.492 11.973-46.305-1.0586-46.305-25.887v-499.23c0-24.828 26.812-37.859 46.305-25.887l405.96 249.61c19.184 11.84 19.184 39.934 0 51.773z" fill-rule="evenodd"/>
  <use x="116.667969" y="593.074219" xlink:href="#w"/>
  <use x="124.757812" y="593.074219" xlink:href="#d"/>
  <use x="130.195312" y="593.074219" xlink:href="#a"/>
  <use x="137.675781" y="593.074219" xlink:href="#c"/>
  <use x="145.113281" y="593.074219" xlink:href="#b"/>
  <use x="150.382813" y="593.074219" xlink:href="#a"/>
  <use x="157.859375" y="593.074219" xlink:href="#k"/>
  <use x="169.589844" y="593.074219" xlink:href="#j"/>
  <use x="177.484375" y="593.074219" xlink:href="#g"/>
  <use x="188.507812" y="593.074219" xlink:href="#f"/>
  <use x="197.039062" y="593.074219" xlink:href="#v"/>
  <use x="200.820312" y="593.074219" xlink:href="#i"/>
  <use x="208.667969" y="593.074219" xlink:href="#u"/>
  <use x="215.230469" y="593.074219" xlink:href="#t"/>
  <use x="219.007812" y="593.074219" xlink:href="#a"/>
  <use x="226.488281" y="593.074219" xlink:href="#g"/>
  <use x="237.511719" y="593.074219" xlink:href="#f"/>
  <use x="246.042969" y="593.074219" xlink:href="#s"/>
  <use x="253.9375" y="593.074219" xlink:href="#c"/>
  <use x="261.375" y="593.074219" xlink:href="#b"/>
  <use x="266.644531" y="593.074219" xlink:href="#h"/>
  <use x="274.496094" y="593.074219" xlink:href="#c"/>
  <use x="116.667969" y="604.101562" xlink:href="#r"/>
  <use x="121.464844" y="604.101562" xlink:href="#d"/>
  <use x="126.902344" y="604.101562" xlink:href="#e"/>
  <use x="134.476562" y="604.101562" xlink:href="#q"/>
  <use x="149.800781" y="604.101562" xlink:href="#b"/>
  <use x="155.074219" y="604.101562" xlink:href="#h"/>
  <use x="162.921875" y="604.101562" xlink:href="#a"/>
  <use x="174.238281" y="604.101562" xlink:href="#p"/>
  <use x="183.464844" y="604.101562" xlink:href="#e"/>
  <use x="191.039062" y="604.101562" xlink:href="#o"/>
  <use x="198.886719" y="604.101562" xlink:href="#i"/>
  <use x="210.574219" y="604.101562" xlink:href="#n"/>
  <use x="218.65625" y="604.101562" xlink:href="#d"/>
  <use x="224.089844" y="604.101562" xlink:href="#e"/>
  <use x="231.664063" y="604.101562" xlink:href="#m"/>
  <use x="235.445312" y="604.101562" xlink:href="#a"/>
  <use x="242.921875" y="604.101562" xlink:href="#l"/>
  <use x="249.457031" y="604.101562" xlink:href="#b"/>
 </g>
</svg>
