<?xml version="1.0" encoding="UTF-8"?>
<svg width="700pt" height="700pt" version="1.1" viewBox="0 0 700 700" xmlns="http://www.w3.org/2000/svg">
 <path d="m245 396.9c-13.242-7.8438-28.359-11.953-43.75-11.898-19.711-1.1016-39.059 5.6445-53.812 18.758-14.754 13.117-23.719 31.539-24.938 51.242 1.2188 19.703 10.184 38.125 24.938 51.242 14.754 13.113 34.102 19.859 53.812 18.758 19.711 1.1016 39.059-5.6445 53.812-18.758 14.754-13.117 23.719-31.539 24.938-51.242v-210h-35zm-43.75 93.102c-10.41 0.99219-20.797-2.1055-28.965-8.6367-8.1641-6.5352-13.469-15.988-14.785-26.363 1.3164-10.375 6.6211-19.828 14.785-26.363 8.168-6.5312 18.555-9.6289 28.965-8.6367 10.41-0.99219 20.797 2.1055 28.965 8.6367 8.1641 6.5352 13.469 15.988 14.785 26.363-1.3164 10.375-6.6211 19.828-14.785 26.363-8.168 6.5312-18.555 9.6289-28.965 8.6367zm180.6-416.15 7 35 171.15-35v270.55c-13.242-7.8438-28.359-11.953-43.75-11.898-19.711-1.1016-39.059 5.6445-53.812 18.758-14.754 13.117-23.719 31.539-24.938 51.242 1.2188 19.703 10.184 38.125 24.938 51.242 14.754 13.113 34.102 19.859 53.812 18.758 19.711 1.1016 39.059-5.6445 53.812-18.758 14.754-13.117 23.719-31.539 24.938-51.242v-371.35zm134.4 363.65c-10.41 0.99219-20.797-2.1055-28.965-8.6367-8.1641-6.5352-13.469-15.988-14.785-26.363 1.3164-10.375 6.6211-19.828 14.785-26.363 8.168-6.5312 18.555-9.6289 28.965-8.6367 10.41-0.99219 20.797 2.1055 28.965 8.6367 8.1641 6.5352 13.469 15.988 14.785 26.363-1.3164 10.375-6.6211 19.828-14.785 26.363-8.168 6.5312-18.555 9.6289-28.965 8.6367zm-253.75-420c-27.848 0-54.555 11.062-74.246 30.754s-30.754 46.398-30.754 74.246 11.062 54.555 30.754 74.246 46.398 30.754 74.246 30.754 54.555-11.062 74.246-30.754 30.754-46.398 30.754-74.246-11.062-54.555-30.754-74.246-46.398-30.754-74.246-30.754zm0 175c-18.566 0-36.371-7.375-49.496-20.504-13.129-13.125-20.504-30.93-20.504-49.496s7.375-36.371 20.504-49.496c13.125-13.129 30.93-20.504 49.496-20.504s36.371 7.375 49.496 20.504c13.129 13.125 20.504 30.93 20.504 49.496s-7.375 36.371-20.504 49.496c-13.125 13.129-30.93 20.504-49.496 20.504zm17.5-87.5h35v35h-35v35h-35v-35h-35v-35h35v-35h35z"/>
</svg>
